<svg width="200" height="54" viewBox="0 0 200 54" fill="none" xmlns="http://www.w3.org/2000/svg">
<g clip-path="url(#clip0_67_6)">
<path d="M173.514 4.12552H169.858C166.202 4.12554 164.534 5.65764 164.534 8.84932V11.5942H168.51L173.513 11.5939L173.514 11.5942V11.5969L180.954 29.1483L184.29 36.8723H184.675L187.818 29.1483L194.81 11.5939H199.814L184.354 48.1711C182.302 52.9584 179.286 53.98 175.822 53.98C174.283 53.98 172.615 53.7244 171.717 53.5329V49.8306H175.309C178.196 49.8306 179.158 49.2561 180.313 46.7665L182.109 42.6812L170.241 15.5518H164.598V43.1282H160.043V15.5518H155.361V11.5942H160.043V10.3813C160.043 3.87027 163.7 0.359384 170.692 0.359356H173.514V4.12552ZM110.99 10.9557C119.072 10.9557 124.525 16.1262 124.525 23.5309V23.9778H119.971V23.5948C119.971 18.1051 117.02 15.1049 110.797 15.1049C103.549 15.1049 100.533 19.6371 100.533 27.4249C100.533 35.1487 103.549 39.6811 110.797 39.6811C117.02 39.6811 119.971 36.6808 119.971 31.1911V30.8081H124.525V31.2549C124.525 38.6595 119.072 43.8302 110.99 43.8302C101.624 43.8302 95.979 37 95.979 27.4249C95.979 17.786 101.624 10.9557 110.99 10.9557ZM79.2999 10.9557C87.7676 10.9557 91.6162 16.3817 91.6162 23.4035V43.1279H87.4467V37.319L87.1262 37.2555C85.2657 40.8939 81.2243 43.7664 75.1944 43.7664C69.4213 43.7664 65.059 40.8301 65.059 35.5317C65.059 30.0421 69.1645 27.6164 76.0923 26.6589L87.2545 25.1268V22.8288C87.2545 17.2753 84.8808 15.041 78.915 15.041C73.1418 15.041 70.4476 17.2753 70.4476 22.3181V23.2757H66.0213V22.765C66.0215 16.1901 71.089 10.9557 79.2999 10.9557ZM35.4811 12.8049V41.5627C35.4811 42.704 34.5516 43.6289 33.4048 43.6289H12.9805L0 30.824V2.06615C5.27765e-05 0.925115 0.929611 5.20374e-05 2.07632 0H22.5008L35.4811 12.8049ZM135.804 11.5937H145.811V15.5515H135.804V34.4464C135.804 38.1488 137.536 38.9785 141.641 38.9785H145.811V42.6809C144.721 42.8724 142.732 43.1917 140.423 43.1917C134.585 43.1917 131.185 40.8936 131.185 34.1909V15.5515H125.861V11.5937H131.25L132.34 3.55061H135.804V11.5937ZM65.101 4.12552H61.4445C57.7883 4.12554 56.1203 5.65764 56.1203 8.84932V11.5942H65.101V15.5518H56.1843V43.1282H51.6299V15.5518H46.9471V11.5942H51.6299V10.3813C51.6299 3.87027 55.2864 0.359384 62.2786 0.359356H65.101V4.12552ZM153.121 43.1282H148.566V11.2112H153.121V43.1282ZM76.4772 30.1058C71.4095 30.8081 69.5494 31.8294 69.5494 35.2127C69.5494 38.4683 71.6022 39.9363 76.4772 39.9366C81.9298 39.9366 87.2545 37.1275 87.2545 29.6591V28.5738L76.4772 30.1058ZM23.6836 29.9246L23.6809 30.031C23.6253 31.1227 22.7179 31.9908 21.607 31.9908H15.8184V39.6279H31.4604V15.6395H23.6836V29.9246ZM11.7977 36.8283V31.9908H6.89413L11.7977 36.8283ZM4.02098 27.9898H11.7977V13.7044C11.7978 12.5635 12.7272 11.6383 13.874 11.6383H19.6626V4.00129H4.02098V27.9898ZM15.8184 27.9898H19.6626V15.6395H15.8184V27.9898ZM23.6836 11.6383H28.5871L23.6836 6.80055V11.6383ZM153.121 7.38119H148.566V0.359356H153.121V7.38119Z" fill="#FAF5F0"/>
</g>
<defs>
<clipPath id="clip0_67_6">
<rect width="200" height="54" fill="white"/>
</clipPath>
</defs>
</svg>
