<svg width="159" height="44" viewBox="0 0 159 44" fill="none" xmlns="http://www.w3.org/2000/svg">
<g clip-path="url(#clip0_67_3)">
<path d="M138.071 3.29883H135.161C132.252 3.29891 130.925 4.524 130.925 7.07617V9.27051H138.071L143.993 23.3086L146.647 29.4844H146.953L149.454 23.3086L155.019 9.27051H159L146.698 38.5195C145.065 42.3479 142.666 43.165 139.909 43.165C138.684 43.165 137.357 42.9607 136.643 42.8076V39.8467H139.501C141.798 39.8467 142.564 39.3872 143.482 37.3965L144.911 34.1299L135.468 12.4355H130.976V34.4873H127.352V12.4355H123.625V9.27051H127.352V8.30078C127.352 3.09435 130.261 0.287109 135.825 0.287109H138.071V3.29883ZM88.3184 8.76074C94.7501 8.76074 99.0889 12.8952 99.0889 18.8164V19.1738H95.4648V18.8672C95.4648 14.4775 93.1171 12.0782 88.166 12.0781C82.398 12.0781 79.9981 15.7024 79.998 21.9297C79.998 28.1061 82.3979 31.7305 88.166 31.7305C93.1171 31.7304 95.4648 29.3312 95.4648 24.9414V24.6357H99.0889V24.9932C99.0887 30.9142 94.7499 35.0488 88.3184 35.0488C80.866 35.0486 76.374 29.5863 76.374 21.9297C76.3742 14.2222 80.8661 8.76095 88.3184 8.76074ZM63.1016 8.76074C69.8394 8.76075 72.9022 13.0991 72.9023 18.7139V34.4873H69.584V29.8418L69.3291 29.791C67.8488 32.7005 64.633 34.9979 59.835 34.998C55.241 34.998 51.7697 32.6496 51.7695 28.4131C51.7695 24.0233 55.0362 22.0831 60.5488 21.3174L69.4307 20.0928V18.2549C69.4307 13.814 67.5421 12.0273 62.7949 12.0273C58.2011 12.0274 56.0576 13.8142 56.0576 17.8467V18.6123H52.5352V18.2041C52.5352 12.9465 56.5678 8.76074 63.1016 8.76074ZM28.2334 10.2393V33.2354C28.2334 34.1478 27.4936 34.8877 26.5811 34.8877H10.3291L0 24.6484V1.65234C4.19962e-05 0.739909 0.739862 4.16119e-05 1.65234 0H17.9043L28.2334 10.2393ZM108.063 9.27051H116.026V12.4355H108.063V27.5449C108.064 30.5054 109.442 31.1689 112.709 31.1689H116.026V34.1299C115.159 34.283 113.576 34.5381 111.739 34.5381C107.094 34.5381 104.389 32.7003 104.389 27.3408V12.4355H100.151V9.27051H104.439L105.308 2.83887H108.063V9.27051ZM51.8047 3.29883H48.8945C45.9851 3.2989 44.6582 4.52399 44.6582 7.07617V9.27051H51.8047V12.4355H44.709V34.4873H41.085V12.4355H37.3584V9.27051H41.085V8.30078C41.0851 3.09435 43.9948 0.287109 49.5586 0.287109H51.8047V3.29883ZM121.844 34.4873H118.22V8.96484H121.844V34.4873ZM60.8555 24.0742C56.8232 24.6357 55.3429 25.4521 55.3428 28.1572C55.3428 30.7605 56.9761 31.9346 60.8555 31.9346C65.1943 31.9346 69.4306 29.689 69.4307 23.7168V22.8486L60.8555 24.0742ZM18.8457 23.9287L18.8438 24.0137C18.7995 24.8867 18.0773 25.5811 17.1934 25.5811H12.5869V31.6885H25.0342V12.5059H18.8457V23.9287ZM9.3877 29.4492V25.5811H5.48633L9.3877 29.4492ZM3.19922 22.3818H9.3877V10.959C9.38778 10.0466 10.1275 9.30666 11.04 9.30664H15.6465V3.19922H3.19922V22.3818ZM12.5869 22.3818H15.6465V12.5059H12.5869V22.3818ZM18.8457 9.30664H22.748L18.8457 5.4375V9.30664ZM121.844 5.90234H118.22V0.287109H121.844V5.90234Z" fill="#333333"/>
</g>
<defs>
<clipPath id="clip0_67_3">
<rect width="159" height="44" fill="white"/>
</clipPath>
</defs>
</svg>
